<svg xmlns="http://www.w3.org/2000/svg" xmlns:xlink="http://www.w3.org/1999/xlink" viewBox="0 0 1530.73 2079"><defs><style>.cls-1{isolation:isolate;}.cls-2,.cls-8{fill:none;}.cls-3{fill:url(#未命名的渐变_26);}.cls-4{fill:url(#未命名的渐变_12);}.cls-5{fill:url(#未命名的渐变_18);}.cls-6{fill:url(#未命名的渐变_15);}.cls-7{mix-blend-mode:multiply;fill:url(#未命名的渐变_25);}.cls-8{stroke:#1d2088;stroke-miterlimit:10;stroke-width:2px;}</style><linearGradient id="未命名的渐变_26" x1="192.1" y1="496.6" x2="929.8" y2="44.47" gradientUnits="userSpaceOnUse"><stop offset="0.16" stop-color="#c30d23"/><stop offset="0.19" stop-color="#cb1c20"/><stop offset="0.27" stop-color="#d9351b"/><stop offset="0.35" stop-color="#e24717"/><stop offset="0.43" stop-color="#e85215"/><stop offset="0.53" stop-color="#ea5514"/></linearGradient><linearGradient id="未命名的渐变_12" x1="369.61" y1="615.48" x2="230.49" y2="95.61" gradientUnits="userSpaceOnUse"><stop offset="0.33" stop-color="#ea5514"/><stop offset="0.39" stop-color="#eb8153"/><stop offset="0.46" stop-color="#eda88a"/><stop offset="0.52" stop-color="#eec7b6"/><stop offset="0.57" stop-color="#eeddd5"/><stop offset="0.61" stop-color="#efeae8"/><stop offset="0.64" stop-color="#efefef"/></linearGradient><linearGradient id="未命名的渐变_18" x1="200.94" y1="746.3" x2="43.52" y2="308.81" gradientUnits="userSpaceOnUse"><stop offset="0.3" stop-color="#ea5514"/><stop offset="0.3" stop-color="#ea5615"/><stop offset="0.37" stop-color="#ec8456"/><stop offset="0.44" stop-color="#edaa8d"/><stop offset="0.5" stop-color="#eec8b7"/><stop offset="0.56" stop-color="#eeddd6"/><stop offset="0.61" stop-color="#efeae8"/><stop offset="0.64" stop-color="#efefef"/></linearGradient><linearGradient id="未命名的渐变_15" x1="362.26" y1="794.52" x2="259.75" y2="336.89" gradientUnits="userSpaceOnUse"><stop offset="0.26" stop-color="#c30d23"/><stop offset="0.41" stop-color="#d6311c"/><stop offset="0.56" stop-color="#e54b16"/><stop offset="0.64" stop-color="#ea5514"/></linearGradient><linearGradient id="未命名的渐变_25" x1="315.81" y1="466.92" x2="658.72" y2="689.01" gradientUnits="userSpaceOnUse"><stop offset="0.2" stop-color="#c30d23"/><stop offset="0.22" stop-color="#c61322" stop-opacity="0.92"/><stop offset="0.3" stop-color="#d1271e" stop-opacity="0.64"/><stop offset="0.38" stop-color="#da371a" stop-opacity="0.41"/><stop offset="0.45" stop-color="#e14417" stop-opacity="0.23"/><stop offset="0.53" stop-color="#e64d16" stop-opacity="0.1"/><stop offset="0.59" stop-color="#e95314" stop-opacity="0.03"/><stop offset="0.64" stop-color="#ea5514" stop-opacity="0"/></linearGradient></defs><title>!blog-logo</title><g class="cls-1"><g id="图层_1" data-name="图层 1"><path class="cls-2" d="M103.77,514.32q-5.47.85-10.93,1.81" transform="translate(635.65 205.42)"/><path class="cls-2" d="M103.77,514.32q-5.47.85-10.93,1.81" transform="translate(635.65 205.42)"/><path class="cls-2" d="M526,349.72a418.74,418.74,0,0,1,15.77,54.41" transform="translate(635.65 205.42)"/><path class="cls-2" d="M103.77,514.32q-5.47.85-10.93,1.81" transform="translate(635.65 205.42)"/><path class="cls-2" d="M103.77,514.32q-5.47.85-10.93,1.81" transform="translate(635.65 205.42)"/><path class="cls-2" d="M103.77,514.32q-5.47.85-10.93,1.81" transform="translate(635.65 205.42)"/><path class="cls-3" d="M370.13,524.58a678.49,678.49,0,0,1,142.75,51.49,262.12,262.12,0,0,0,28.88-171.9v0A418.74,418.74,0,0,0,526,349.72,424.22,424.22,0,0,0,341.26,129.11,259.36,259.36,0,0,1,315.14,190a261.79,261.79,0,0,1-39.52,51.24,259.28,259.28,0,0,1-21.38,19.33h0q-8.78,7.14-18.17,13.47a160.8,160.8,0,0,1,105.77,42.54,5.62,5.62,0,0,1,.44.41,161.32,161.32,0,0,1-52.39,193.12l-.47.35A680.75,680.75,0,0,1,367.51,524Z" transform="translate(635.65 205.42)"/><path class="cls-4" d="M355.22,380.36a161.11,161.11,0,0,1-65.34,129.7l-.47.35-2.16-.24h-.07A160.85,160.85,0,0,0,332,398.57c0-.58,0-1.16,0-1.74a.17.17,0,0,1,0-.1c0-1.41,0-2.81-.1-4.22a1.09,1.09,0,0,1,0-.18,160.92,160.92,0,0,0-50.09-110.75,161.18,161.18,0,0,1,60.07,34.95,5.62,5.62,0,0,1,.44.41A160.65,160.65,0,0,1,355.22,380.36Z" transform="translate(635.65 205.42)"/><path class="cls-4" d="M355.22,380.36a161.11,161.11,0,0,1-65.34,129.7l-.47.35-2.16-.24h-.07A160.85,160.85,0,0,0,332,398.57c0-.58,0-1.16,0-1.74a.17.17,0,0,1,0-.1c0-1.41,0-2.81-.1-4.22a1.09,1.09,0,0,1,0-.18,160.92,160.92,0,0,0-50.09-110.75,161.18,161.18,0,0,1,60.07,34.95,5.62,5.62,0,0,1,.44.41A160.65,160.65,0,0,1,355.22,380.36Z" transform="translate(635.65 205.42)"/><path class="cls-5" d="M201.67,506q-3.85,18.16-9.28,35.72-2.69,8.81-5.77,17.43-4.94,13.89-10.8,27.3A421.18,421.18,0,0,1,133,662.06a261.64,261.64,0,0,1-97.4-133.41q15-4,30.23-7.25,13.4-2.91,27-5.27,5.44-.95,10.93-1.81A686.32,686.32,0,0,1,201.67,506Z" transform="translate(635.65 205.42)"/><path class="cls-6" d="M512.88,576.07a261.24,261.24,0,0,1-379.85,86,421.18,421.18,0,0,0,42.79-75.58q5.87-13.41,10.8-27.3,3.07-8.62,5.77-17.43,5.42-17.55,9.28-35.72,4.65-.07,9.3-.07a690,690,0,0,1,76.21,4.2h.08l2.15.24A680.75,680.75,0,0,1,367.51,524l2.62.61A678.49,678.49,0,0,1,512.88,576.07Z" transform="translate(635.65 205.42)"/><path class="cls-7" d="M370.13,524.58a678.49,678.49,0,0,1,142.75,51.49,260.2,260.2,0,0,0,15.52-33.21,678.06,678.06,0,0,0-122.95-27.74l-2.67-.33a680.58,680.58,0,0,0-79.09-5.28l-2.24,0q-15.72-.08-31.57.57l-2.62.11,2.15.24A680.75,680.75,0,0,1,367.51,524Z" transform="translate(635.65 205.42)"/></g><g id="图层_2" data-name="图层 2"><circle class="cls-8" cx="805.67" cy="603.29" r="161.4"/><circle class="cls-8" cx="828.92" cy="585.07" r="161.4"/><circle class="cls-8" cx="867.7" cy="640.07" r="161.4"/><circle class="cls-8" cx="1228.07" cy="593.07" r="261.15"/><circle class="cls-8" cx="919.6" cy="654.03" r="261.15"/><circle class="cls-8" cx="725.17" cy="262.15" r="261.15"/><circle class="cls-8" cx="423.53" cy="622.2" r="422.53"/><circle class="cls-8" cx="763.99" cy="699.19" r="422.53"/><circle class="cls-8" cx="846.07" cy="1394.34" r="683.66"/></g></g></svg>